<svg xmlns="http://www.w3.org/2000/svg" xmlns:xlink="http://www.w3.org/1999/xlink" viewBox="0 0 170.53 228.31"><defs><style>.cls-1{fill:url(#linear-gradient);}.cls-2{fill:url(#linear-gradient-2);}.cls-3{fill:url(#linear-gradient-3);}.cls-4{fill:url(#linear-gradient-4);}.cls-5{fill:#eeeded;}.cls-6{fill:#c5c5c4;}.cls-7{fill:#363636;}.cls-8{fill:url(#linear-gradient-5);}.cls-9{fill:#a9a9a9;}.cls-10{fill:#38b4bd;}.cls-11{fill:#fff;}.cls-12{fill:#fbba10;}.cls-13{fill:url(#Безымянный_градиент_91);}.cls-14{fill:#f6bb8a;}.cls-15{fill:#d99466;}.cls-16{fill:#78412d;}.cls-17{fill:#b05b37;}.cls-18{fill:url(#Безымянный_градиент_161);}.cls-19{fill:url(#Безымянный_градиент_161-2);}.cls-20{fill:url(#Ѕезым_нный_градиент_52);}.cls-21{fill:#9b4626;}.cls-22{fill:#422110;}.cls-23{fill:#daeffb;}.cls-24{fill:#854c13;}.cls-25{fill:url(#Безымянный_градиент_153);}.cls-26{fill:#834a13;}.cls-27{fill:#1d1d1d;}.cls-28{fill:#b4d8e6;}.cls-29{fill:#98551f;}.cls-30{fill:#bc7443;}.cls-31{fill:url(#Безымянный_градиент_138);}.cls-32{fill:url(#Безымянный_градиент_138-2);}.cls-33{fill:url(#Безымянный_градиент_151);}.cls-34{fill:url(#Безымянный_градиент_138-3);}.cls-35{fill:url(#Безымянный_градиент_151-2);}.cls-36{fill:#f3f5fa;}.cls-37{fill:#cad0dd;}.cls-38{fill:url(#Безымянный_градиент_138-4);}.cls-39{fill:url(#Безымянный_градиент_138-5);}.cls-40{fill:url(#Безымянный_градиент_138-6);}</style><linearGradient id="linear-gradient" x1="80.8" y1="160.41" x2="121.65" y2="160.41" gradientUnits="userSpaceOnUse"><stop offset="0" stop-color="#dbdbdb"/><stop offset="0.41" stop-color="#c9c9c9"/><stop offset="1" stop-color="#a8a8a8"/></linearGradient><linearGradient id="linear-gradient-2" x1="80.13" y1="225.79" x2="80.13" y2="117.2" xlink:href="#linear-gradient"/><linearGradient id="linear-gradient-3" x1="167.41" y1="225.79" x2="167.41" y2="117.2" gradientTransform="matrix(-1, 0, 0, 1, 290.28, 0)" xlink:href="#linear-gradient"/><linearGradient id="linear-gradient-4" x1="186.45" y1="225.79" x2="186.45" y2="117.2" gradientTransform="matrix(-1, 0, 0, 1, 290.28, 0)" xlink:href="#linear-gradient"/><linearGradient id="linear-gradient-5" x1="97.38" y1="1.61" x2="103.46" y2="1.61" xlink:href="#linear-gradient"/><linearGradient id="Безымянный_градиент_91" x1="-41.36" y1="268.64" x2="-41.36" y2="276.82" gradientTransform="matrix(1.84, 0.14, -0.12, 1.58, 142.36, -371.98)" gradientUnits="userSpaceOnUse"><stop offset="0.24" stop-color="#eba36e"/><stop offset="0.59" stop-color="#f6bb8a"/></linearGradient><linearGradient id="Безымянный_градиент_161" x1="-72.41" y1="27.33" x2="-72.41" y2="29.91" gradientTransform="translate(113.3 15.39) rotate(6.07)" gradientUnits="userSpaceOnUse"><stop offset="0" stop-color="#19416a"/><stop offset="1" stop-color="#5c99ae"/></linearGradient><linearGradient id="Безымянный_градиент_161-2" x1="-180.07" y1="31.11" x2="-180.07" y2="33.69" gradientTransform="matrix(-1, -0.03, -0.03, 1, -149.6, -1.02)" xlink:href="#Безымянный_градиент_161"/><linearGradient id="Ѕезым_нный_градиент_52" x1="34.13" y1="40.81" x2="34.13" y2="38.91" gradientUnits="userSpaceOnUse"><stop offset="0" stop-color="#e7955e"/><stop offset="0.88" stop-color="#f6bb8a"/></linearGradient><linearGradient id="Безымянный_градиент_153" x1="30.68" y1="121.09" x2="30.68" y2="226.5" gradientUnits="userSpaceOnUse"><stop offset="0.02" stop-color="#81a4c1"/><stop offset="1" stop-color="#b4d8e6"/></linearGradient><linearGradient id="Безымянный_градиент_138" x1="11.33" y1="64.28" x2="11.33" y2="110.85" gradientUnits="userSpaceOnUse"><stop offset="0.31" stop-color="#384e6d"/><stop offset="1" stop-color="#26314b"/></linearGradient><linearGradient id="Безымянный_градиент_138-2" x1="49.22" y1="57.53" x2="49.22" y2="137.83" xlink:href="#Безымянный_градиент_138"/><linearGradient id="Безымянный_градиент_151" x1="46.49" y1="57.53" x2="46.49" y2="98.18" gradientUnits="userSpaceOnUse"><stop offset="0.02" stop-color="#506e8c"/><stop offset="1" stop-color="#384f6d"/></linearGradient><linearGradient id="Безымянный_градиент_138-3" x1="25.97" y1="57.53" x2="25.97" y2="138.6" xlink:href="#Безымянный_градиент_138"/><linearGradient id="Безымянный_градиент_151-2" x1="30.2" y1="57.53" x2="30.2" y2="104.87" xlink:href="#Безымянный_градиент_151"/><linearGradient id="Безымянный_градиент_138-4" x1="59.01" y1="63.82" x2="59.01" y2="141.08" xlink:href="#Безымянный_градиент_138"/><linearGradient id="Безымянный_градиент_138-5" x1="24.71" y1="115.4" x2="24.71" y2="121.09" xlink:href="#Безымянный_градиент_138"/><linearGradient id="Безымянный_градиент_138-6" x1="53.48" y1="115.4" x2="53.48" y2="120.49" xlink:href="#Безымянный_градиент_138"/></defs><title>pic_lector</title><g id="Слой_2" data-name="Слой 2"><g id="Слой_1-2" data-name="Слой 1"><polygon class="cls-1" points="81.05 159.37 121.4 159.37 121.65 161.45 80.8 160.79 81.05 159.37"/><polygon class="cls-2" points="85.16 117.2 71.4 225.79 72.04 225.79 88.85 117.2 85.16 117.2"/><polygon class="cls-3" points="116.51 117.2 132.92 225.79 132.28 225.79 112.81 117.2 116.51 117.2"/><polygon class="cls-4" points="104.12 117.2 107.24 225.79 106.6 225.79 100.42 117.2 104.12 117.2"/><polygon class="cls-5" points="168.46 118.08 37.97 117.42 35.71 7.32 168.46 5.11 168.46 118.08"/><path class="cls-6" d="M36.06,10.05s105-2.83,132.39-1.41c0-.94-.13-2.55-.13-2.55l-132.78,2Z"/><polygon class="cls-7" points="33.05 8.64 169.67 6.87 170.53 1.58 33.57 3.79 33.05 8.64"/><polygon class="cls-7" points="168.45 118.3 37.96 117.64 37.98 117.2 168.46 117.86 168.45 118.3"/><rect class="cls-7" x="103.5" y="117.75" width="0.52" height="5.03"/><path class="cls-7" d="M106.28,124.59a2.55,2.55,0,1,0-2.52,2.14A2.36,2.36,0,0,0,106.28,124.59Zm-.78,0a1.76,1.76,0,1,1-1.74-1.47A1.62,1.62,0,0,1,105.5,124.59Z"/><polygon class="cls-8" points="97.38 0 97.38 3.22 103.46 3.22 102.68 0 97.38 0"/><path class="cls-9" d="M82.28,24.4h66v3.35h-66Zm0,10.92h66V32h-66Zm0,7.58H123.9V39.56H82.28Z"/><path class="cls-9" d="M82.28,53.46h66v3.35h-66Zm0,10.93h66V61h-66Zm0,7.58H123.9V68.62H82.28Z"/><rect class="cls-10" x="53.17" y="24.4" width="18.5" height="18.5"/><rect class="cls-10" x="53.17" y="53.46" width="18.5" height="18.5"/><polygon class="cls-11" points="68.12 28.49 61.63 34.98 57.67 31.02 56.11 32.58 61.63 38.1 69.68 30.05 68.12 28.49"/><polygon class="cls-11" points="68.12 57.23 61.63 63.71 57.67 59.75 56.11 61.31 61.63 66.83 69.68 58.78 68.12 57.23"/><path class="cls-9" d="M82.28,82.53h66v3.34h-66Zm0,10.92h66V90.11h-66Zm0,7.58H123.9V97.69H82.28Z"/><rect class="cls-12" x="53.17" y="82.53" width="18.5" height="18.5"/><polygon class="cls-11" points="68.12 86.29 61.63 92.78 57.67 88.82 56.11 90.38 61.63 95.9 69.68 87.85 68.12 86.29"/><path class="cls-13" d="M38.27,49.34c-.4,4.13-.27,5.06,1.09,9.65-.43.62-5,1.54-5.3,2-2-1-3.89-1-5.62-1.4.88-2.33.39-8,.11-11C28.32,46.19,38.27,49.34,38.27,49.34Z"/><path class="cls-14" d="M24.65,37.56c.75,3.67,1.35,8.27,1.94,10.07.47,1.44,5.09,6,7.41,5.61s7.4-2.49,8-6.32.89-9.45,1.25-11.94.35-9.18-.81-11-9.26-2.58-12-2.05-6.6,2.14-6.86,4.46S24.24,35.57,24.65,37.56Z"/><path class="cls-14" d="M42.82,37.2c2.41-1.78,3.83-1.78,3.3,1.16s-1.78,4.46-3.3,5S42.82,37.2,42.82,37.2Z"/><path class="cls-15" d="M44.66,37.17a20.06,20.06,0,0,0-1.31,2.95,4,4,0,0,0,.42.53A17.43,17.43,0,0,1,44.66,37.17Z"/><path class="cls-14" d="M25.54,38.27c-.77-1.92-3.66-1.78-3.48.63s2,6.41,3.65,5.7S26.25,40.06,25.54,38.27Z"/><path class="cls-15" d="M23.45,38.61a18.17,18.17,0,0,1,1.84,2.69,4.47,4.47,0,0,1-.46.62A13.68,13.68,0,0,0,23.45,38.61Z"/><path class="cls-16" d="M24.82,38.27c-.62-3.65.18-5.07,0-6.77s-1.72-4.36,0-5.43,7-1.34,9.77-.8,3.84-1.7,5.8-.81,2,3.92,2,5.26.9,2.32,1,3.65-.53,3.39-.44,4.1a1.92,1.92,0,0,1,1-1.07c-.09-2.14-1.16-4.72,0-6.14s2.32-3.12,1.34-4.73-2.14-1.6-2-2.58.44-1.69-1.07-2.58S40.06,18.5,38,17.78a7.72,7.72,0,0,0-6,0c-2.32.89-2.14,2.59-5,2.41s-4.63-1.16-5.34.62a6.41,6.41,0,0,0,0,4.55c-1.25,1.15-2.59,1.69-1.7,3.11s2.85,1.25,3.12,2.68.36,5.34.45,6.05C23.93,37.56,24.82,38.27,24.82,38.27Z"/><path class="cls-17" d="M35.53,36.53a4.13,4.13,0,0,1,5.36.57C41.09,35.22,37,32.52,35.53,36.53Z"/><path class="cls-11" d="M35.52,36.62a6.63,6.63,0,0,0,5.36.57C41.05,35.57,36.92,33.18,35.52,36.62Z"/><path class="cls-18" d="M39.14,37.51a2,2,0,0,0,.51-1.16,2.11,2.11,0,0,0-.15-1,3.08,3.08,0,0,0-2.09-.42,2,2,0,0,0-.5,1.15,2,2,0,0,0,.23,1.2A6.28,6.28,0,0,0,39.14,37.51Z"/><path class="cls-17" d="M32.26,36.68a4.11,4.11,0,0,0-5.38-.14C26.92,34.65,31.35,32.51,32.26,36.68Z"/><path class="cls-11" d="M32.26,36.77a6.64,6.64,0,0,1-5.39-.14C26.92,35,31.33,33.17,32.26,36.77Z"/><path class="cls-19" d="M28.56,37.18A2,2,0,0,1,28.21,36a2,2,0,0,1,.28-1,3.19,3.19,0,0,1,2.13-.14A2.05,2.05,0,0,1,31,36a2.08,2.08,0,0,1-.38,1.16A6.23,6.23,0,0,1,28.56,37.18Z"/><path class="cls-20" d="M31.8,38.91c.06.63.21,1.84,2.14,1.9a2.15,2.15,0,0,0,2.53-1.9A3.86,3.86,0,0,1,34,40C33.5,40,32.13,39.71,31.8,38.91Z"/><path class="cls-21" d="M25.44,32.8c1.94-1.08,5-1,5.89-.39.43-.57.13-.88.34-1.2C29.86,30.88,28.26,30.46,25.44,32.8Z"/><path class="cls-21" d="M42.43,32.36c-2-1.08-5-1-5.89-.39-.44-.57-.13-.88-.34-1.2C38,30.44,39.61,30,42.43,32.36Z"/><path class="cls-22" d="M31.12,43.9A14.5,14.5,0,0,0,38,43.79c-1.9,2.17-3.7,2.58-4.8,2.33A3.69,3.69,0,0,1,31.12,43.9Z"/><path class="cls-11" d="M31.12,43.9A4.81,4.81,0,0,0,32,45.29,11,11,0,0,0,36.79,45,9.39,9.39,0,0,0,38,43.79,14.5,14.5,0,0,1,31.12,43.9Z"/><polygon class="cls-23" points="49.79 61.59 39.85 58.64 25.45 60.12 17.55 73.25 20.8 121.09 53.58 122.61 49.79 61.59"/><path class="cls-24" d="M10.93,226.5l.26,1.81H0a5,5,0,0,1,.88-.9c1.94-1,8.39-.91,8.39-.91Z"/><path class="cls-24" d="M49.77,226.5a10.08,10.08,0,0,1,2.95.91,3,3,0,0,1,.34.9H47.33a2.64,2.64,0,0,1,0-.9,4.54,4.54,0,0,0,.33-.91Z"/><path class="cls-25" d="M52,122c-.63,14.5-.07,41.49-.49,48.16s-1.74,54.09-1.74,56.39H47.66c-2.32-11.28-7.79-37.49-5.8-44.06,3-9.85-.29-27.88-2.81-39.62-5.06,10.59-13.4,38.5-13.76,43.65-.84,12.09-14,40-14,40H9.37C11.69,221,26.48,121.09,26.48,121.09Z"/><path class="cls-26" d="M52,122l-25.43-1.74-.47,3.44s9.7.69,17.75,1l8,.33Z"/><path class="cls-27" d="M38,121.61v0h0Z"/><path class="cls-27" d="M43.44,123.14l0-.44h-.64l.17-1.75-5.07.07a4.18,4.18,0,0,0,.11.56c.33,0,4.22,0,4.22,0l-.29,1.15h-1l-.21.39h1.09l-.27,1.1-3.69-.12s-.23.6-.24.6l4.95.2.17-1.77Z"/><polygon class="cls-28" points="36.11 58.23 39.43 63.13 42.14 58.7 39.26 54.15 36.11 58.23"/><polygon class="cls-28" points="36.11 58.23 32.47 63.74 25.45 58.92 27.8 54.27 36.11 58.23"/><path class="cls-28" d="M40.12,73.8l7.2,1s-1.23,11.67-5,11.13S40.12,73.8,40.12,73.8Z"/><polygon class="cls-29" points="36.11 58.23 32.86 63.01 35.29 65.34 32.25 116.1 38.16 125.48 42.28 116.1 36.57 65.34 38.86 62.3 36.11 58.23"/><path class="cls-30" d="M34.88,72.32,37,69.41l.11,1-2.26,2.86Zm-.38,6.24,3.14-3.75-.1-.89-2.95,3.24ZM34.24,83l-.1,1.63,4.16-3.91-.09-.77Zm-.58,9.69,5.41-5.14-.07-.6L33.76,91Zm-.46,7.69,6.65-5.83-.06-.44-6.52,5Zm-.45,7.4,7.84-6.7-.08-.7-7.64,5.34Zm8.56,0-.06-.81-8.92,7.8-.08,1.37Z"/><path class="cls-31" d="M16.13,64.28s-1.64.89-3.25,1.9c-1,.62-8.73,29.72-9.43,34.92s-1.13,8.68,0,9.68c.36.32,4.88-.5,6.6-2.2,3.62-3.6,4-16.73,8-21.19C23.15,81.76,16.13,64.28,16.13,64.28Z"/><path class="cls-32" d="M42.28,57.53c-.42,16.25,3,63.31,3.39,80.3,4.21-.46,8-1.13,10.5-1.28-.63-5.24-.08-37.21,0-41.19.24-13.06-2-25.68-2.35-31.54C50,61.68,42.28,57.53,42.28,57.53Z"/><path class="cls-33" d="M47.21,72.25,49,70.41s-1.47-5.34-3.66-11.21l-3.1-1.67c-.21,8.26.58,24.47,1.45,40.65l7-23.94Z"/><path class="cls-34" d="M25.69,57.53c4.44,8.59,8.7,18.37,9.72,23.34s3.66,39.8,3.66,57.73c-12.13-.92-17.24-2-22.09-3.22.3-10.34.59-39.63-.52-57.52-.35-5.71-2.9-9.27-3.58-11.68C17.55,63.13,25.69,57.53,25.69,57.53Z"/><path class="cls-35" d="M37.62,104.87c-.78-11.57-1.7-21.52-2.21-24-1-5-5.28-14.75-9.72-23.34,0,0-1.23.83-2.92,2l2.38,12.11L28.6,73l-2.91,2.29Z"/><polygon class="cls-36" points="65.84 143.59 65.84 123.17 48.8 123.4 49.68 155.42 53.48 155.42 65.84 143.59"/><polygon class="cls-37" points="65.84 123.17 52.76 124.42 53.48 155.42 49.68 155.42 48.8 123.4 64.2 123.17 65.84 123.17"/><path class="cls-14" d="M61.51,140.26l2.64.54s.11,5.92-.76,7.62c-.37.72-1.6,1.9-2.41,1.87-.41,0-1.31-.77-1.31-.77l.91-1v-2.78s-1,.89-1.57.57c-.29-.15-.5-.87.08-1.51A24,24,0,0,0,61.51,140.26Z"/><path class="cls-38" d="M53.82,63.82s2.22,1.24,3.9,2.08c.71,9.84,7.16,41,6.43,75.18-1.27-.12-2.62,0-3.38,0-3-17-6.56-45.77-6.56-45.77Z"/><polygon class="cls-36" points="10.78 105.2 30.41 105.2 26.14 78.57 2.75 78.57 10.78 105.2"/><path class="cls-14" d="M7.34,106.13c-.87-.92-2.58-5.87-2.38-6.62s2.88-3,4.23-3.62a24,24,0,0,1,5.24-1.24,1.49,1.49,0,0,1-1,1.89c-.45.21-3,1.2-3,1.2s4-1.24,4.37-1.32c.1.93.53,2.21.34,2.74s-1.38,1.14-1.38,1.14.72,1.31.06,1.67a10.28,10.28,0,0,0-3,1.61A30.44,30.44,0,0,1,7.34,106.13Z"/><polygon class="cls-39" points="19.91 115.4 29.5 116.1 29.5 121.09 19.91 121.09 19.91 115.4"/><polygon class="cls-40" points="51.94 116.1 55.03 115.4 55.03 119.76 51.94 120.49 51.94 116.1"/></g></g></svg>