<svg xmlns="http://www.w3.org/2000/svg" xmlns:xlink="http://www.w3.org/1999/xlink" viewBox="0 0 30.89 30.89"><defs><style>.cls-1{fill-rule:evenodd;fill:url(#Безымянный_градиент_15);}.cls-2{fill:#e7832e;}.cls-3{fill:#6a1a16;}.cls-4{fill:#e3bfa4;}.cls-5{fill:#150709;}</style><linearGradient id="Безымянный_градиент_15" x1="13" y1="30.89" x2="13" y2="4.89" gradientUnits="userSpaceOnUse"><stop offset="0" stop-color="#8dd1f4"/><stop offset="1" stop-color="#ddf1fd"/></linearGradient></defs><title>ico_reg</title><g id="Слой_2" data-name="Слой 2"><g id="Слой_1-2" data-name="Слой 1"><path class="cls-1" d="M5,4.89H21a5,5,0,0,1,5,5v16a5,5,0,0,1-5,5H5a5,5,0,0,1-5-5v-16A5,5,0,0,1,5,4.89Z"/><rect class="cls-2" x="12.24" y="7.58" width="12.34" height="9.81" transform="translate(-3.43 16.67) rotate(-45)"/><path class="cls-3" d="M29.51,1.63l-.25-.24a4.73,4.73,0,0,0-6.69,0L19.31,4.65l6.93,6.94,3.27-3.27A4.73,4.73,0,0,0,29.51,1.63Z"/><polygon class="cls-4" points="12.76 21.6 17.52 20.31 10.58 13.38 9.29 18.14 12.76 21.6"/><polygon class="cls-5" points="12.76 21.6 9.29 18.14 8 22.89 12.76 21.6"/></g></g></svg>