<svg xmlns="http://www.w3.org/2000/svg" xmlns:xlink="http://www.w3.org/1999/xlink" viewBox="0 0 27.98 20.76"><defs><style>.cls-1,.cls-2{fill-rule:evenodd;}.cls-1{fill:url(#Безымянный_градиент_33);}.cls-2{fill:#d5e2e0;}</style><linearGradient id="Безымянный_градиент_33" x1="13.99" y1="20.76" x2="13.99" y2="5.85" gradientUnits="userSpaceOnUse"><stop offset="0" stop-color="#56ade1"/><stop offset="1" stop-color="#95d4f6"/></linearGradient></defs><title>ico_phone</title><g id="Слой_2" data-name="Слой 2"><g id="Слой_1-2" data-name="Слой 1"><path class="cls-1" d="M19.94,11.55a1.94,1.94,0,0,1-1.7-2.13l.32-2.81A10.05,10.05,0,0,0,14,5.85a10,10,0,0,0-4.56.76l.31,2.81A1.93,1.93,0,0,1,8,11.55L4,12v5.39a3.38,3.38,0,0,0,3.37,3.37H20.61A3.38,3.38,0,0,0,24,17.39V12Z"/><path class="cls-2" d="M27.65,10.48,28,7.7c.56-5-8.23-7.7-14-7.7S-.54,2.68,0,7.7l.31,2.78a1.93,1.93,0,0,0,2.13,1.7L8,11.55a1.93,1.93,0,0,0,1.7-2.13L9.43,6.61A10,10,0,0,1,14,5.85a10.05,10.05,0,0,1,4.57.76l-.32,2.81a1.94,1.94,0,0,0,1.7,2.13l5.58.63A1.94,1.94,0,0,0,27.65,10.48Z"/></g></g></svg>