<svg xmlns="http://www.w3.org/2000/svg" xmlns:xlink="http://www.w3.org/1999/xlink" viewBox="0 0 206.86 209.01"><defs><style>.cls-1{fill:url(#Безымянный_градиент_72);}.cls-2{fill:url(#Безымянный_градиент_91);}.cls-3{fill:#f6bb8a;}.cls-4{fill:#d99466;}.cls-5{fill:#f6ab85;}.cls-6{fill:#180e08;}.cls-7{fill:#fff;}.cls-8{fill:url(#linear-gradient);}.cls-9{fill:url(#linear-gradient-2);}.cls-10{fill:#422110;}.cls-11{fill:url(#Безымянный_градиент_87);}.cls-12{fill:url(#linear-gradient-3);}.cls-13{fill:url(#Безымянный_градиент_115);}.cls-14{fill:#d8c1a5;}.cls-15{fill:#854c13;}.cls-16{fill:#d5d5d4;}.cls-17{fill:#eeeded;}.cls-18{fill:url(#linear-gradient-4);}.cls-19{fill:url(#linear-gradient-5);}.cls-20{fill:url(#linear-gradient-6);}.cls-21{fill:url(#linear-gradient-7);}.cls-22{fill:url(#Безымянный_градиент_28);}.cls-23{fill:url(#Безымянный_градиент_32);}.cls-24{fill:url(#linear-gradient-8);}.cls-25{fill:url(#linear-gradient-9);}.cls-26{fill:url(#linear-gradient-10);}.cls-27{fill:url(#linear-gradient-11);}.cls-28{fill:url(#Безымянный_градиент_28-2);}.cls-29{fill:url(#Безымянный_градиент_32-2);}.cls-30{fill:#e0a675;}.cls-31{fill:url(#linear-gradient-12);}.cls-32{fill:url(#linear-gradient-13);}.cls-33{fill:url(#linear-gradient-14);}.cls-34{fill:url(#linear-gradient-15);}.cls-35{fill:url(#Безымянный_градиент_28-3);}.cls-36{fill:url(#Безымянный_градиент_32-3);}.cls-37{fill:url(#Безымянный_градиент_91-2);}.cls-38{fill:#78412d;}.cls-39{fill:#9b4626;}.cls-40{fill:url(#Безымянный_градиент_2);}.cls-41{fill:url(#Безымянный_градиент_4);}.cls-42{fill:url(#linear-gradient-16);}.cls-43{fill:#2b2c2c;}.cls-44{fill:#464545;}.cls-45{fill:#5b5a5a;}.cls-46{fill:#868686;}.cls-47{fill:url(#linear-gradient-17);}.cls-48{fill:url(#Безымянный_градиент_109);}.cls-49{fill:url(#Безымянный_градиент_112);}.cls-50{fill:url(#linear-gradient-18);}</style><linearGradient id="Безымянный_градиент_72" x1="26.89" y1="-12.75" x2="26.89" y2="27.38" gradientTransform="translate(80.32 10.53) rotate(4.31)" gradientUnits="userSpaceOnUse"><stop offset="0" stop-color="#8e5c1f"/><stop offset="0.11" stop-color="#784c1d"/><stop offset="0.23" stop-color="#673f1c"/><stop offset="0.36" stop-color="#5d371b"/><stop offset="0.52" stop-color="#5a351b"/></linearGradient><linearGradient id="Безымянный_градиент_91" x1="26.05" y1="17.56" x2="26.05" y2="30.3" gradientTransform="translate(80.32 10.53) rotate(4.31)" gradientUnits="userSpaceOnUse"><stop offset="0.24" stop-color="#eba36e"/><stop offset="0.59" stop-color="#f6bb8a"/></linearGradient><linearGradient id="linear-gradient" x1="23.55" y1="8.89" x2="26.91" y2="8.89" gradientTransform="translate(80.32 10.53) rotate(4.31)" gradientUnits="userSpaceOnUse"><stop offset="0" stop-color="#1c2718"/><stop offset="1" stop-color="#576a39"/></linearGradient><linearGradient id="linear-gradient-2" x1="32.78" y1="6.29" x2="35.52" y2="6.29" xlink:href="#linear-gradient"/><linearGradient id="Безымянный_градиент_87" x1="111.4" y1="59.88" x2="122.4" y2="59.88" gradientUnits="userSpaceOnUse"><stop offset="0" stop-color="#a4947f"/><stop offset="0.44" stop-color="#d8c1a5"/></linearGradient><linearGradient id="linear-gradient-3" x1="-9853.03" y1="99.66" x2="-9853.03" y2="129.18" gradientTransform="matrix(-1, 0, 0, 1, -9736.86, 0)" gradientUnits="userSpaceOnUse"><stop offset="0" stop-color="#2b2b2b"/><stop offset="0.52" stop-color="#383838"/><stop offset="1" stop-color="#3d3e3e"/></linearGradient><linearGradient id="Безымянный_градиент_115" x1="106.68" y1="103.08" x2="106.68" y2="40.07" gradientUnits="userSpaceOnUse"><stop offset="0" stop-color="#beab92"/><stop offset="0.44" stop-color="#d8c1a5"/></linearGradient><linearGradient id="linear-gradient-4" x1="122.02" y1="209.01" x2="122.02" y2="158.18" gradientUnits="userSpaceOnUse"><stop offset="0" stop-color="#dbdbdb"/><stop offset="0.41" stop-color="#c9c9c9"/><stop offset="1" stop-color="#a8a8a8"/></linearGradient><linearGradient id="linear-gradient-5" x1="134.26" y1="209.01" x2="134.26" y2="158.18" xlink:href="#linear-gradient-4"/><linearGradient id="linear-gradient-6" x1="175.08" y1="209.01" x2="175.08" y2="158.18" xlink:href="#linear-gradient-4"/><linearGradient id="linear-gradient-7" x1="160.79" y1="209.01" x2="160.79" y2="158.18" xlink:href="#linear-gradient-4"/><linearGradient id="Безымянный_градиент_28" x1="148.54" y1="99.59" x2="148.54" y2="158.18" gradientUnits="userSpaceOnUse"><stop offset="0" stop-color="#e0dfdf"/><stop offset="0.77" stop-color="#ebeaea"/><stop offset="1" stop-color="#dedede"/></linearGradient><linearGradient id="Безымянный_градиент_32" x1="115.9" y1="130.39" x2="181.19" y2="130.39" gradientUnits="userSpaceOnUse"><stop offset="0" stop-color="#c6c4c4"/><stop offset="1" stop-color="#ececec"/></linearGradient><linearGradient id="linear-gradient-8" x1="64.34" y1="209.01" x2="64.34" y2="158.18" xlink:href="#linear-gradient-4"/><linearGradient id="linear-gradient-9" x1="76.58" y1="209.01" x2="76.58" y2="158.18" xlink:href="#linear-gradient-4"/><linearGradient id="linear-gradient-10" x1="117.4" y1="209.01" x2="117.4" y2="158.18" xlink:href="#linear-gradient-4"/><linearGradient id="linear-gradient-11" x1="103.11" y1="209.01" x2="103.11" y2="158.18" xlink:href="#linear-gradient-4"/><linearGradient id="Безымянный_градиент_28-2" x1="90.86" y1="99.59" x2="90.86" y2="158.18" xlink:href="#Безымянный_градиент_28"/><linearGradient id="Безымянный_градиент_32-2" x1="58.22" y1="130.39" x2="123.51" y2="130.39" xlink:href="#Безымянный_градиент_32"/><linearGradient id="linear-gradient-12" x1="6.12" y1="209.01" x2="6.12" y2="158.18" xlink:href="#linear-gradient-4"/><linearGradient id="linear-gradient-13" x1="18.37" y1="209.01" x2="18.37" y2="158.18" xlink:href="#linear-gradient-4"/><linearGradient id="linear-gradient-14" x1="59.18" y1="209.01" x2="59.18" y2="158.18" xlink:href="#linear-gradient-4"/><linearGradient id="linear-gradient-15" x1="44.9" y1="209.01" x2="44.9" y2="158.18" xlink:href="#linear-gradient-4"/><linearGradient id="Безымянный_градиент_28-3" x1="32.65" y1="99.59" x2="32.65" y2="158.18" xlink:href="#Безымянный_градиент_28"/><linearGradient id="Безымянный_градиент_32-3" x1="0" y1="130.39" x2="65.29" y2="130.39" xlink:href="#Безымянный_градиент_32"/><linearGradient id="Безымянный_градиент_91-2" x1="58.18" y1="91.87" x2="58.18" y2="105.87" gradientTransform="matrix(1.19, 0.09, -0.09, 1.17, 87.5, -43.6)" xlink:href="#Безымянный_градиент_91"/><linearGradient id="Безымянный_градиент_2" x1="-1036.51" y1="46.08" x2="-1035.93" y2="42.88" gradientTransform="matrix(-0.98, -0.18, -0.18, 0.98, -855.2, -168.67)" gradientUnits="userSpaceOnUse"><stop offset="0" stop-color="#35a6ae"/><stop offset="0.85" stop-color="#1b4f52"/></linearGradient><linearGradient id="Безымянный_градиент_4" x1="-1038.45" y1="-43.56" x2="-1037.8" y2="-47.13" gradientTransform="matrix(0, -1, -1, 0, 102.92, -979.44)" gradientUnits="userSpaceOnUse"><stop offset="0" stop-color="#35a6ae"/><stop offset="0.71" stop-color="#1b4f52"/></linearGradient><linearGradient id="linear-gradient-16" x1="7971.52" y1="109.36" x2="7970.07" y2="122.7" gradientTransform="translate(-7806.33)" gradientUnits="userSpaceOnUse"><stop offset="0" stop-color="#2b2c2c"/><stop offset="1" stop-color="#0f0f0f"/></linearGradient><linearGradient id="linear-gradient-17" x1="132.8" y1="131.74" x2="121.97" y2="150.5" gradientTransform="matrix(-1, 0, 0, 1, 281.03, 0)" gradientUnits="userSpaceOnUse"><stop offset="0" stop-color="#105d77"/><stop offset="1" stop-color="#093e4f"/></linearGradient><linearGradient id="Безымянный_градиент_109" x1="102.57" y1="123.15" x2="102.57" y2="180.12" gradientTransform="matrix(-1, 0, 0, 1, 281.03, 0)" gradientUnits="userSpaceOnUse"><stop offset="0.35" stop-color="#1f566f"/><stop offset="1" stop-color="#205d78"/></linearGradient><linearGradient id="Безымянный_градиент_112" x1="119.85" y1="140.13" x2="119.85" y2="206.02" gradientTransform="matrix(-1, 0, 0, 1, 281.03, 0)" gradientUnits="userSpaceOnUse"><stop offset="0" stop-color="#0f6481"/><stop offset="1" stop-color="#093e4f"/></linearGradient><linearGradient id="linear-gradient-18" x1="6255.36" y1="94.11" x2="6253.21" y2="119.92" gradientTransform="matrix(-1, 0, 0, 1, 6389.55, 0)" gradientUnits="userSpaceOnUse"><stop offset="0" stop-color="#2b2c2c"/><stop offset="1" stop-color="#50504f"/></linearGradient></defs><title>pic_seats</title><g id="Слой_2" data-name="Слой 2"><g id="Слой_1-2" data-name="Слой 1"><path class="cls-1" d="M117.34,21.18c4.15,4.12,6.6,9.34,4.69,13.27s-10.88,6.47-17.25,5.28-7.91-.36-12-1.74c-3.88-1.3-5.4-2.92-3.27-7.22S93,25,93.09,22.39s-3.39-10.66-1-14.23,5.63-3.64,8.1-3.39C102,1.61,111-2.88,115.84,2.52S118.86,17.35,117.34,21.18Z"/><path class="cls-2" d="M106.94,34a11.44,11.44,0,0,0,1,6.25,10.88,10.88,0,0,1-1.36,2.62A40.41,40.41,0,0,0,100.87,40c.67-2,.52-7.77.36-9.82s5.61,3.48,5.61,3.48"/><path class="cls-3" d="M118.1,18c.17,6.7.2,7-.43,9.56s-4.6,8.33-6.26,8.59-10.24-1.74-12.88-7.95-1.44-4-1.75-5.6-.3-9.62,3.81-14.64c2,3.93,9.2,7.14,12.72,7.45C115,17,115.73,18.61,118.1,18Z"/><path class="cls-3" d="M97.67,23.38c-2.59-1.62-4.43-2.08-4.27.06s1.42,6,3.24,5.92S99.31,26.41,97.67,23.38Z"/><path class="cls-4" d="M96,25.65A3.81,3.81,0,0,0,94.66,23c2,1.41,2.38,2.5,2.37,3.18"/><path class="cls-5" d="M111.29,21.19a6.17,6.17,0,0,0,2.36,2l.35.36s-2.19,3.39-3.41,2c-.62-.72-.2-1.46.77-1.66S111.67,22.22,111.29,21.19Z"/><path class="cls-4" d="M111.13,15.69a7.72,7.72,0,0,0,.44,5.66c.87,1.29,2.48,1.76,2.62,2.1s-.72,1.65-2.09,2.16c.62-.54,1.28-1.54,1.19-1.92s-2-1.07-2.47-3.1A8.17,8.17,0,0,1,111.13,15.69Z"/><path class="cls-6" d="M107.64,21.08c-.56-2.27-3-3.38-6.6-1a6.28,6.28,0,0,0,.81,1.51A5,5,0,0,1,107.64,21.08Z"/><path class="cls-7" d="M101.69,21.38c3.09-3.32,4.94-1.71,6.25.18C106,23.88,103.44,23.83,101.69,21.38Z"/><path class="cls-8" d="M103.25,20a2.57,2.57,0,0,0-.06.4c-.11,1.41.56,2.61,1.48,2.68s1.77-1,1.87-2.43a3.83,3.83,0,0,0,0-.68A2.66,2.66,0,0,0,103.25,20Z"/><path class="cls-6" d="M112.19,20.61c-.09-4.15,2-4.43,4.31-3.66.26.39-.07.62-.1,1.27C114.36,17.81,112.67,19.69,112.19,20.61Z"/><path class="cls-7" d="M112.13,21.39c.46-4.17,1.25-4.78,4.24-3.69C116.65,20.44,115.07,22.74,112.13,21.39Z"/><path class="cls-9" d="M112.56,18.92c0,1.46.64,2.63,1.4,2.62s1.35-1.19,1.33-2.66A4.41,4.41,0,0,0,115,17.3C113.68,17,113,17.46,112.56,18.92Z"/><path class="cls-6" d="M100.18,19.09c3.84-4.26,6.76-4.36,7.09-4.46,0,.32-.16,1.16-.11,1.4C105.47,16.59,103,16.78,100.18,19.09Z"/><path class="cls-10" d="M114.51,27.29s-1.11,3.09-1.65,3.34-5-.66-6.81-3.11C109.3,29.57,114.51,27.29,114.51,27.29Z"/><path class="cls-7" d="M114.51,27.29s-.88,2-1.42,2.28-5.27.4-7-2.05C108.64,28.51,114.51,27.29,114.51,27.29Z"/><path class="cls-11" d="M113.33,42c3.57.55,7.3,19.37,9,30.6.28,1.86-.54,3.63-1.26,5.16C117,75.73,107.29,42.77,113.33,42Z"/><path class="cls-12" d="M118.62,100.55c5.42,22.93,5.7,38.22,7.23,50.52s14.43,50.46,14.43,50.46h-1.54c-4.21-8.51-14.83-22.39-17.87-32.66s-.51-12.89-.26-17.52c-1.15-3.75-12.51-30.07-14.41-38.17-.36,5.5-1.08,57.47-.91,65.79.23,10.81.51,22.56.51,22.56h-1.4c-13.39-36.15-6.57-45.72-5.7-54.75.64-6.7-6.63-15.24-6.63-37.94,0-8.42,3.13-14.09,4.43-15.58Z"/><path class="cls-13" d="M113.33,42l-5.17-1.93-2.31,2.36-4.91-1L95.08,44s.46,7.06,1.57,9.76,6.92,23.08,7.56,27.37C104.74,84.75,96.06,93,94,98c0,0,9,4.21,13,5,8.34.83,8.41-2.19,11.6-2.38,0,0-.24-6.12-.24-8a25,25,0,0,0-1-4.18S116.06,69,115.8,65.9c1.79-1.25,3.49-3.37,3.58-4.34C116.82,56.84,114.27,44.36,113.33,42Z"/><path class="cls-14" d="M119.08,73.11s.3,10.4,12.09,29.48l1.31-.38s-6.88-22.5-10.16-29.37C122,72.2,119.66,73.2,119.08,73.11Z"/><path class="cls-15" d="M105.8,201.53a9,9,0,0,0-4.38-1.27c-2.13.11-1.79,1.27-1.79,1.27Z"/><path class="cls-15" d="M138.74,201.53l1.19-.9s7.11-2.09,7.79-1.32a9.82,9.82,0,0,1,1.28,2.22Z"/><polygon class="cls-16" points="108.31 40.89 107.92 38.33 105.97 41.33 100.27 38.57 101.1 42.26 105.97 44.08 108.31 40.89"/><polygon class="cls-17" points="100.27 38.57 98.75 42.26 102.84 44.48 104.84 40.78 100.27 38.57"/><polygon class="cls-17" points="106.65 40.3 108.8 44.08 109.75 40.89 107.92 38.33 106.65 40.3"/><path class="cls-14" d="M95.08,44c-3.82,6.53-6,13.63-3.66,35.55.62,2.33,2.53,5.13,3.91.21s3.58-24.83,3.41-29S96.16,44.51,95.08,44Z"/><path class="cls-14" d="M91.57,77.67s-1.69,10.26,6.25,31.24l1.36-.12S96.71,85.39,94.8,78C94.62,77.34,92.12,77.87,91.57,77.67Z"/><polygon class="cls-18" points="124.35 158.18 115.91 209.01 117.36 209.01 128.13 158.18 124.35 158.18"/><polygon class="cls-19" points="134.55 158.18 130.2 209.01 131.65 209.01 138.33 158.18 134.55 158.18"/><polygon class="cls-20" points="172.75 158.18 181.19 209.01 179.73 209.01 168.97 158.18 172.75 158.18"/><polygon class="cls-21" points="160.51 158.18 164.86 209.01 163.41 209.01 156.72 158.18 160.51 158.18"/><path class="cls-22" d="M175.51,151.16l-5.95-.47-7-44.22a7.91,7.91,0,0,0-7.85-6.88H129.64a7.92,7.92,0,0,0-7.81,6.61l-5.93,42.39a9.59,9.59,0,0,0,9.59,9.59h55.7v-.86A6.19,6.19,0,0,0,175.51,151.16Zm-46.31-.36a8.46,8.46,0,0,1,8.46-8.46h13.67a8.47,8.47,0,0,1,8.47,8.46Z"/><path class="cls-23" d="M126.66,156.14a9.59,9.59,0,0,1-9.59-9.59L123,104.16a7.9,7.9,0,0,1,.44-1.55,7.89,7.89,0,0,0-1.61,3.59l-5.93,42.39a9.59,9.59,0,0,0,9.59,9.59h55.7v-.86a5.76,5.76,0,0,0-.12-1.18Z"/><polygon class="cls-24" points="66.67 158.18 58.23 209.01 59.68 209.01 70.45 158.18 66.67 158.18"/><polygon class="cls-25" points="76.87 158.18 72.52 209.01 73.97 209.01 80.65 158.18 76.87 158.18"/><polygon class="cls-26" points="115.07 158.18 123.51 209.01 122.05 209.01 111.29 158.18 115.07 158.18"/><polygon class="cls-27" points="102.83 158.18 107.18 209.01 105.73 209.01 99.05 158.18 102.83 158.18"/><path class="cls-28" d="M117.82,151.16l-5.94-.47-7-44.22a7.92,7.92,0,0,0-7.85-6.88H72a7.92,7.92,0,0,0-7.81,6.61l-5.93,42.39a9.59,9.59,0,0,0,9.59,9.59h55.7v-.86A6.19,6.19,0,0,0,117.82,151.16Zm-46.3-.36A8.46,8.46,0,0,1,80,142.34H93.65a8.47,8.47,0,0,1,8.47,8.46Z"/><path class="cls-29" d="M69,156.14a9.59,9.59,0,0,1-9.6-9.59l5.94-42.39a7.9,7.9,0,0,1,.44-1.55,7.89,7.89,0,0,0-1.61,3.59l-5.93,42.39a9.59,9.59,0,0,0,9.59,9.59h55.7v-.86a5.76,5.76,0,0,0-.12-1.18Z"/><path class="cls-30" d="M97.67,100.28a3.44,3.44,0,0,0-2.72-2,10.17,10.17,0,0,0-3.19.3c-.55.41.76,1.35.76,1.35s.26.89,2.68.89C96,99.76,97.67,100.28,97.67,100.28Z"/><path class="cls-30" d="M91.6,98.79c-.34,1.25-1.44,4.82-1.62,5.42.93.34,1.18.22,1.46-.73s1.36-4.4,1.49-4.83S91.75,98.25,91.6,98.79Z"/><path class="cls-30" d="M92.43,99.21c-.25,1.28-1.1,5-1.24,5.6,1,.2,1.19,0,1.41-.93s1.05-4.55,1.14-5S92.54,98.65,92.43,99.21Z"/><path class="cls-30" d="M93.35,99.38c-.25,1.28-1.1,5-1.24,5.6,1,.2,1.19.06,1.41-.93s1-4.55,1.15-5S93.46,98.82,93.35,99.38Z"/><path class="cls-30" d="M94.39,98.87c-.1,1.3-.52,5.11-.58,5.75.89,0,1.08-.16,1.19-1.18s.25-3.5.3-4S94.44,98.29,94.39,98.87Z"/><path class="cls-30" d="M94.47,98.24c1.11.28,4.39,1,5,1.1.4,1.07-.64,1.29-1.52,1.1l-4.43-.94C93.07,99.42,94,98.12,94.47,98.24Z"/><polygon class="cls-31" points="8.45 158.18 0.01 209.01 1.47 209.01 12.23 158.18 8.45 158.18"/><polygon class="cls-32" points="18.65 158.18 14.3 209.01 15.75 209.01 22.43 158.18 18.65 158.18"/><polygon class="cls-33" points="56.85 158.18 65.29 209.01 63.84 209.01 53.07 158.18 56.85 158.18"/><polygon class="cls-34" points="44.61 158.18 48.96 209.01 47.51 209.01 40.83 158.18 44.61 158.18"/><path class="cls-35" d="M59.61,151.16l-5.94-.47-7-44.22a7.92,7.92,0,0,0-7.85-6.88H13.74a7.92,7.92,0,0,0-7.81,6.61L0,148.59a9.59,9.59,0,0,0,9.59,9.59h55.7v-.86A6.18,6.18,0,0,0,59.61,151.16ZM13.3,150.8a8.47,8.47,0,0,1,8.47-8.46H35.44a8.46,8.46,0,0,1,8.46,8.46Z"/><path class="cls-36" d="M10.76,156.14a9.59,9.59,0,0,1-9.59-9.59L7.1,104.16a7.9,7.9,0,0,1,.44-1.55,8,8,0,0,0-1.61,3.59L0,148.59a9.59,9.59,0,0,0,9.59,9.59h55.7v-.86a6.56,6.56,0,0,0-.11-1.18Z"/><path class="cls-37" d="M151.13,73.53a21.89,21.89,0,0,0,1.07,8.91c-.38.62-1.76,2.84-2,3.3-1.77-1-5.75-3.32-7.25-3.75.79-2.33,1-10.24.83-12.65s6.69,4.09,6.69,4.09"/><path class="cls-38" d="M138.93,59.79c-3.85-4.48-3.23-7.69-.87-10.64s1.77-6.85,3.78-8.92,6.2.93,10,1.34,6.27-1.57,7.95,1.1,1.1,2,4.14,3.49c2.33,1.12,0,7.39-2.72,7.18C157.86,53.09,142.55,63,138.93,59.79Z"/><path class="cls-3" d="M159.76,49c1.27,2.79,2.25,6.61,1.26,8.8s-1.47,5.05-2,8.9c-.76,5.53-5,11.14-8.3,11-5.55-.22-8.18-8.18-8.38-10.88-1.64.89-4.48-.81-4.49-4.06s2.28-4.42,3.91-2.55c.32-4.47.62-6,1.18-6.89s.23-3.59-.95-3.61C144.3,47.9,153.57,44.06,159.76,49Z"/><path class="cls-39" d="M159.54,60.52c-1.25-4.14-3.11-3.54-4.38-.87C156.29,61.48,159.05,60.07,159.54,60.52Z"/><path class="cls-7" d="M159.54,60.52c-1.28-3.39-3.13-2.84-4.38-.86C156,63.93,158.89,61.64,159.54,60.52Z"/><path class="cls-40" d="M155.66,61.11a5.26,5.26,0,0,1-.48-1.37.59.59,0,0,1,0-.14,3.73,3.73,0,0,1,1.37-1.35,1.53,1.53,0,0,1,1.2,1.58,1.48,1.48,0,0,1-1.26,1.67A1.13,1.13,0,0,1,155.66,61.11Z"/><path class="cls-39" d="M150.8,59.14c-.62-4.34-3.61-3.73-4.53-1.31C147,59.42,149.82,60.4,150.8,59.14Z"/><path class="cls-7" d="M150.9,59.6c-.76-4-2.89-3.7-4.63-1.77C146.42,62.68,150,60.71,150.9,59.6Z"/><ellipse class="cls-41" cx="148.27" cy="58.69" rx="1.82" ry="1.45" transform="translate(64.08 194.11) rotate(-79.73)"/><path class="cls-4" d="M154.8,69.18A20.77,20.77,0,0,1,147,65.9c-.25-.42-.91-.22-.27.51,1.33,1.51,5.06,2.78,7.9,3.15C155.85,69.75,154.8,69.18,154.8,69.18Z"/><path class="cls-5" d="M154.43,60.62c-.23,1.47-.56,3.34-1.07,3.43s-2.28-.28-2.49.26.82,1.52,2.08,1.81,2.18.22,2.19-.45a19.2,19.2,0,0,0-.46-2.46C154.64,62.86,154.44,61.45,154.43,60.62Z"/><path class="cls-4" d="M154.52,56.56c-.18,3.44-.38,6.5-.14,7.4s.56,1.31.32,1.71-1.84.44-3.06,0c2.24,1.26,3.85,1,4,0s-.59-1.49-.72-2.22A51.34,51.34,0,0,1,154.52,56.56Z"/><path class="cls-39" d="M144,55.23c1.88-1.31,5.39-2.18,6.61-1.7a20.39,20.39,0,0,0,.69-2C149.13,51.69,146.63,51.69,144,55.23Z"/><path class="cls-39" d="M155.26,55.19c2.42-.08,4.19-.54,5.59,1.79a4.84,4.84,0,0,0-4.63-3.7A10.7,10.7,0,0,0,155.26,55.19Z"/><path class="cls-4" d="M140.77,61a13.8,13.8,0,0,1,.87,3.75c-.56.11-1,.23-1.26.25A9.25,9.25,0,0,0,140.77,61Z"/><path class="cls-42" d="M166.78,88.41c-3.87,17.75-7.23,36-7.86,38.54a40.35,40.35,0,0,1,8.43,2.65s.35-21.08,0-28.11C167.1,95.64,166.78,88.41,166.78,88.41Z"/><path class="cls-43" d="M129.2,88.8s9.6-4.13,17.27-5.47c.61-.11,1.59,2.59,2.21,2.51s1.88-2,2.54-2c4.24-.21,9.78,1.84,15.56,4.57-.4,16-8.4,19.1-5.29,52.78a35.39,35.39,0,0,0,1.48,5.54l-1.32,2.8s-15.84-3.07-20.89-4.22c-3.54-.81-6.08-1.28-6.08-1.28l.68-4.45-.94-19.15.69-12.19Z"/><polygon class="cls-44" points="150.18 84.25 153.25 88.8 155.77 84.69 153.1 80.47 150.18 84.25"/><polygon class="cls-44" points="150.18 84.25 146.8 89.36 140.29 84.89 142.47 80.58 150.18 84.25"/><path class="cls-44" d="M153.9,98.69l6.68,1S159.44,110.46,156,110,153.9,98.69,153.9,98.69Z"/><polygon class="cls-45" points="150.18 84.25 147.16 88.68 149.42 90.85 146.6 137.94 152.08 146.64 155.9 137.94 150.61 90.85 152.73 88.03 150.18 84.25"/><path class="cls-46" d="M149,97.32l2-2.7.1.92L149,98.19Zm-.34,5.79,2.9-3.48-.09-.83-2.74,3Zm-.25,4.09-.09,1.51,3.86-3.63-.08-.71Zm-.54,9,5-4.76-.06-.56-4.87,3.8Zm-.43,7.14,6.18-5.41-.06-.4-6.05,4.64Zm-.41,6.86,7.27-6.21-.07-.65-7.08,5Zm7.94,0-.05-.74-8.28,7.23-.07,1.27Z"/><path class="cls-47" d="M135.74,139.29c.55-.55,5.81-3.68,6.36-4a200.35,200.35,0,0,1,22.79-11.64c3.79-1.68,11,11.12,3.94,16.36s-7.44,11.77-15,12.23c-4.53.28-18.19,0-18.19,0C134.27,147.43,130.72,144.13,135.74,139.29Z"/><path class="cls-48" d="M195.22,181.48c-12-31.2-20.88-47.32-23.66-52.06-1.44-2.44-.83-8-6.67-5.77-2.23.83-7.07,10.31,2.68,26.75s23.75,31.08,24.58,32.2A27.45,27.45,0,0,0,195.22,181.48Z"/><path class="cls-49" d="M154.55,151.46c0-7.52,3.13-11.22,5.81-11.32,3.27-.13,7.71,4.15,7.43,14.05s-2.73,48.19-2.73,51.81l-3.93,0C158.33,193.28,154.81,168.51,154.55,151.46Z"/><path class="cls-30" d="M142.4,121l1.92,7.24a9.37,9.37,0,0,1,4.05-2.22c2.19-.54,13.81-.68,17.78-4,1.86-1.58.8,1.7.8,1.7l-25.67,12.18s-4.28-6.61-5.08-11.95C139.67,120.27,142.4,121,142.4,121Z"/><path class="cls-50" d="M129.2,88.8c-1.79,5.7-1.32,13.79,1.67,24.54.5,5.88,1.11,8.38,2.1,14.39,3.65-1.83,8.11-3.6,10-5.15C142.93,122.58,134.68,96.07,129.2,88.8Z"/><path class="cls-30" d="M164.42,123.27a4.36,4.36,0,0,1,4.7-1.75,15.17,15.17,0,0,1,4.48,2.67c.38,1-2.11,1.75-2.11,1.75s-1.09,1.31-4.24-.26A12.69,12.69,0,0,1,164.42,123.27Z"/><path class="cls-30" d="M160.05,126.18s-3.12-3.07-4.61-3.63c-1.29-.49-4.7-.6-5.29-.27-.8.81-1.25,3.79-1.25,3.79s.23.42,1,.24a2.91,2.91,0,0,1,1.56.13s.33.21,4,0C156.9,126.34,160.05,126.18,160.05,126.18Z"/><path class="cls-30" d="M173.71,124.34c.43,1.24,1.84,4.81,2.07,5.41-1.19.34-1.5.22-1.87-.73s-1.73-4.39-1.9-4.83S173.52,123.79,173.71,124.34Z"/><path class="cls-30" d="M172.66,125c.31,1.28,1.4,5,1.57,5.61-1.22.2-1.52,0-1.8-.94s-1.33-4.54-1.46-5S172.51,124.45,172.66,125Z"/><path class="cls-30" d="M171.48,125.17c.31,1.28,1.4,5,1.58,5.61-1.23.2-1.53.05-1.81-.94s-1.33-4.54-1.46-5S171.33,124.62,171.48,125.17Z"/><path class="cls-30" d="M170.14,124.66c.13,1.31.67,5.11.75,5.75-1.14,0-1.39-.16-1.52-1.17s-.66-4.68-.72-5.14S170.08,124.09,170.14,124.66Z"/><path class="cls-30" d="M168.3,121.51c1.15-.07,4.53-.47,5.1-.54.66,1.06-.3,1.68-1.2,1.78l-4.56.54C167.23,123.34,167.79,121.55,168.3,121.51Z"/><path class="cls-15" d="M193.18,182.17s9.8,9.84,13.47,6.93c.49-.39,0-2-.42-2.46-2.17-2.3-11.09-5.39-11.09-5.39Z"/><path class="cls-15" d="M164.83,206c3.76.2,3.76,3,3.76,3h-7.22l.4-3S164.07,206,164.83,206Z"/></g></g></svg>